# xmcd
#
# Track frame offsets: 
#        150
#        17683
#        31202
#        46586
#        63094
#        75777
#        91900
#        108977
#        129416
#        149365
#        161289
#
# Disc length: 2385 seconds
#
# Revision: 0
# Processed by: cddbd v1.5.2PL0 Copyright (c) Steve Scherf et al.
# Submitted via: ExactAudioCopyFreeDBPlugin 1.0
#
DISCID=71094f0b
DTITLE=Mario Thellend - À Mon Meilleur
DYEAR=2008
DGENRE=Country
TTITLE0=Manque d'Amour
TTITLE1=La P'tite Gaspésienne
TTITLE2=Le Goût De Chanter
TTITLE3=J'en Ai Jamais Assez
TTITLE4=Tout Un Show
TTITLE5=La Rivière De Mes Amours
TTITLE6=Plus La Même
TTITLE7=S'aimer Toujours
TTITLE8=C'est Beau La Vie
TTITLE9=C'est Pas Un Rigodon
TTITLE10=Tout Peut Recommencer
EXTD=
EXTT0=
EXTT1=
EXTT2=
EXTT3=
EXTT4=
EXTT5=
EXTT6=
EXTT7=
EXTT8=
EXTT9=
EXTT10=
PLAYORDER=
